<svg width="160" height="144" viewBox="0 0 160 144" fill="none" xmlns="http://www.w3.org/2000/svg">
<path d="M56.7694 108.485C56.7694 113.064 58.132 117.54 60.6849 121.348C63.2378 125.155 66.8664 128.123 71.1118 129.875C75.3571 131.628 80.0285 132.086 84.5354 131.193C89.0422 130.299 93.182 128.094 96.4313 124.856C99.6805 121.618 101.893 117.493 102.79 113.002C103.686 108.51 103.226 103.855 101.468 99.6245C99.7092 95.3938 96.7313 91.7778 92.9106 89.2337C89.0898 86.6896 84.5979 85.3317 80.0028 85.3317C73.8423 85.3362 67.9354 87.7769 63.5792 92.118C59.2231 96.4591 56.7739 102.346 56.7694 108.485ZM98.0394 108.485C98.0361 112.039 96.9754 115.512 94.9915 118.466C93.0076 121.42 90.1895 123.721 86.8934 125.079C83.5974 126.437 79.9713 126.79 76.4736 126.095C72.976 125.399 69.7637 123.686 67.243 121.172C64.7222 118.657 63.006 115.455 62.3114 111.968C61.6168 108.482 61.975 104.869 63.3407 101.586C64.7063 98.3022 67.0182 95.496 69.9839 93.5217C72.9497 91.5474 76.4362 90.4937 80.0028 90.4937C84.7879 90.4981 89.3756 92.3956 92.7577 95.7691C96.1397 99.1426 98.0394 103.716 98.0394 108.485Z" fill="#F2A428"/>
<path d="M151.61 32.2833L131.936 1.27815C131.74 0.902796 131.457 0.579868 131.109 0.336562L130.924 0.235681L130.637 0.101165L130.35 0.0170898H29.6216L29.3516 0.101165L29.031 0.252486H28.8792C28.7362 0.34851 28.6009 0.455316 28.4743 0.571958C28.3477 0.70025 28.2346 0.841099 28.1368 0.99231L8.39602 32.2833C8.18997 32.614 8.06036 32.9862 8.01658 33.373C7.97281 33.7598 8.01595 34.1515 8.14292 34.5196C8.26054 34.9047 8.46668 35.2572 8.74492 35.5491C9.02317 35.841 9.36587 36.0642 9.74582 36.201L72.3258 57.5212C71.0005 58.5682 69.9071 59.8773 69.1145 61.3662C68.3219 62.855 67.8473 64.4912 67.7205 66.1718C67.5937 67.8524 67.8175 69.541 68.3778 71.1312C68.938 72.7214 69.8227 74.1787 70.976 75.4114C62.8851 77.5901 55.8639 82.6237 51.2186 89.5755C46.5734 96.5274 44.6205 104.924 45.7232 113.204C46.8259 121.483 50.9092 129.081 57.2134 134.585C63.5175 140.089 71.6132 143.123 79.9943 143.123C88.3754 143.123 96.4711 140.089 102.775 134.585C109.079 129.081 113.163 121.483 114.265 113.204C115.368 104.924 113.415 96.5274 108.77 89.5755C104.125 82.6237 97.1036 77.5901 89.0126 75.4114C90.1693 74.181 91.0572 72.7249 91.6203 71.1351C92.1834 69.5452 92.4095 67.8563 92.2842 66.175C92.159 64.4936 91.6851 62.8565 90.8925 61.367C90.1 59.8774 89.006 58.568 87.6798 57.5212L150.26 36.201C150.641 36.0665 150.985 35.8441 151.264 35.5519C151.542 35.2597 151.747 34.906 151.863 34.5196C151.99 34.1515 152.033 33.7598 151.989 33.373C151.945 32.9862 151.816 32.614 151.61 32.2833ZM100.368 31.0727H59.6208L36.1175 5.16219H123.854L100.368 31.0727ZM95.6773 36.1842L79.9859 53.4186L64.3283 36.1842H95.6773ZM14.5376 32.2833L30.6339 6.91087L56.5838 35.4948L56.6682 35.5957L71.3472 51.7204L14.5376 32.2833ZM109.378 108.569C109.378 114.359 107.655 120.018 104.427 124.832C101.199 129.646 96.6117 133.398 91.2441 135.614C85.8765 137.829 79.9702 138.409 74.272 137.28C68.5738 136.15 63.3397 133.362 59.2315 129.268C55.1234 125.174 52.3257 119.958 51.1922 114.28C50.0588 108.601 50.6405 102.715 52.8638 97.3664C55.0871 92.0174 58.8523 87.4455 63.6829 84.2289C68.5136 81.0123 74.1929 79.2955 80.0028 79.2955C87.7762 79.3043 95.2299 82.3798 100.734 87.8495C106.239 93.3192 109.347 100.738 109.378 108.485V108.569ZM72.8826 67.038C72.8792 65.6339 73.294 64.2604 74.0743 63.0914C74.8547 61.9223 75.9655 61.0102 77.2663 60.4706C78.567 59.931 79.9992 59.7881 81.3815 60.06C82.7638 60.3318 84.034 61.0063 85.0315 61.9979C86.029 62.9896 86.7088 64.2539 86.9849 65.6307C87.261 67.0076 87.121 68.4351 86.5826 69.7326C86.0441 71.0302 85.1316 72.1393 83.9603 72.9198C82.789 73.7002 81.4117 74.1168 80.0028 74.1168C79.062 74.1168 78.1306 73.9311 77.2623 73.5703C76.394 73.2095 75.6061 72.6808 74.9441 72.0148C74.282 71.3488 73.7589 70.5586 73.4051 69.6899C73.0513 68.8213 72.8737 67.8914 72.8826 66.9539V67.038ZM88.6752 51.6531L129.422 6.8268L145.468 32.2833L88.6752 51.6531Z" fill="#F2A428"/>
<path d="M77.4044 97.9591V118.994C77.3755 119.35 77.421 119.709 77.538 120.047C77.6551 120.385 77.8411 120.695 78.0845 120.958C78.3278 121.221 78.6231 121.43 78.9518 121.574C79.2805 121.717 79.6355 121.791 79.9943 121.791C80.3532 121.791 80.7081 121.717 81.0368 121.574C81.3655 121.43 81.6609 121.221 81.9042 120.958C82.1475 120.695 82.3335 120.385 82.4506 120.047C82.5676 119.709 82.6131 119.35 82.5842 118.994V97.9591C82.5317 97.3106 82.236 96.7055 81.7561 96.2644C81.2762 95.8232 80.6472 95.5782 79.9943 95.5782C79.3414 95.5782 78.7125 95.8232 78.2326 96.2644C77.7526 96.7055 77.457 97.3106 77.4044 97.9591Z" fill="#F2A428"/>
</svg>
